<?xml version="1.0" encoding="UTF-8" standalone="no"?>
<!-- Created with Inkscape (http://www.inkscape.org/) -->

<svg
   xmlns:dc="http://purl.org/dc/elements/1.1/"
   xmlns:cc="http://creativecommons.org/ns#"
   xmlns:rdf="http://www.w3.org/1999/02/22-rdf-syntax-ns#"
   xmlns:svg="http://www.w3.org/2000/svg"
   xmlns="http://www.w3.org/2000/svg"
   version="1.1"
   width="77.125"
   height="125"
   id="svg2">
  <title
     id="title3002">flower</title>
  <defs
     id="defs4" />
  <metadata
     id="metadata7">
    <rdf:RDF>
      <cc:Work
         rdf:about="">
        <dc:format>image/svg+xml</dc:format>
        <dc:type
           rdf:resource="http://purl.org/dc/dcmitype/StillImage" />
        <dc:title>flower</dc:title>
      </cc:Work>
    </rdf:RDF>
  </metadata>
  <g
     transform="translate(4.4707036e-7,-927.3622)"
     id="layer1">
    <g
       transform="matrix(9.7104,0,0,9.7104,1.0000039,-9168.1158)"
       id="text2993"
       style="font-size:17.55829811px;font-style:normal;font-variant:normal;font-weight:normal;font-stretch:normal;text-align:start;line-height:125%;letter-spacing:0px;word-spacing:0px;writing-mode:lr-tb;text-anchor:start;fill:#ffffff;fill-opacity:1;stroke:none;font-family:Segoe UI Symbol;-inkscape-font-specification:Segoe UI Symbol">
      <path
         d="m 7.7160485,1046.6609 c -8.5e-6,0.4801 -0.087171,0.8888 -0.2614883,1.226 -0.1743337,0.3372 -0.3915259,0.6373 -0.6515775,0.9002 -0.2600668,0.2629 -0.5415594,0.5072 -0.8444787,0.733 -0.3029328,0.2258 -0.5844254,0.4701 -0.8444787,0.733 -0.2600651,0.2629 -0.4772573,0.5616 -0.6515774,0.8959 -0.1743307,0.3344 -0.2614934,0.7388 -0.2614883,1.2132 l -0.6858711,0 c -4.3e-6,-0.4744 -0.087167,-0.8788 -0.2614883,-1.2132 -0.1743294,-0.3343 -0.3915217,-0.633 -0.6515775,-0.8959 -0.2600626,-0.2629 -0.5415552,-0.5072 -0.8444787,-0.733 -0.3029286,-0.2258 -0.5844212,-0.4701 -0.84447865,-0.733 -0.26006091,-0.2629 -0.47725318,-0.563 -0.65157747,-0.9002 C 0.08716142,1047.5497 -1.2700801e-6,1047.141 -4.4703484e-7,1046.6609 -1.2700801e-6,1046.4951 0.0142877,1046.3151 0.04286649,1046.1208 c 0.02857707,-0.1944 0.07287286,-0.3901 0.13288751,-0.5873 0.0600127,-0.1972 0.13717307,-0.3944 0.23148147,-0.5916 0.0943059,-0.1972 0.20718877,-0.3815 0.33864882,-0.553 l 0.0857339,0 c -0.0285796,0.1429 -0.0514419,0.2744 -0.0685871,0.3944 -0.0171483,0.12 -0.0257217,0.2486 -0.0257202,0.3858 -1.56e-6,0.3487 0.0542965,0.6587 0.16289437,0.9302 0.10859444,0.2715 0.24719734,0.5244 0.41580934,0.7588 0.1686076,0.2343 0.3586509,0.4572 0.5701303,0.6687 0.2114739,0.2115 0.4200928,0.4301 0.6258573,0.6559 0.2057577,0.2257 0.3972299,0.4672 0.5744169,0.7244 0.1771793,0.2572 0.320069,0.5487 0.4286694,0.8745 l 0,-5.9671 c -0.2229122,-0.057 -0.4358177,-0.1486 -0.6387174,-0.2743 -0.202907,-0.1258 -0.3800901,-0.2758 -0.53155,-0.4501 -0.1514662,-0.1744 -0.2729224,-0.3673 -0.364369,-0.5787 -0.091452,-0.2115 -0.1371768,-0.4316 -0.1371742,-0.6602 -2.6e-6,-0.2858 0.052867,-0.5501 0.1586077,-0.793 0.1057355,-0.2429 0.2500541,-0.453 0.4329561,-0.6302 0.1828955,-0.1771 0.3958011,-0.3157 0.6387174,-0.4158 0.2429085,-0.1 0.5015387,-0.15 0.7758916,-0.15 0.2743434,0 0.5344026,0.053 0.7801782,0.1586 0.2457648,0.1057 0.4615282,0.2486 0.6472908,0.4287 0.1857505,0.18 0.3329268,0.3915 0.4415295,0.6344 0.1085896,0.2429 0.1628876,0.4987 0.1628943,0.7673 -6.7e-6,0.2401 -0.04716,0.4673 -0.1414608,0.6816 -0.094314,0.2143 -0.2200567,0.4058 -0.3772291,0.5744 -0.1571848,0.1686 -0.3372258,0.3129 -0.5401234,0.433 -0.202909,0.12 -0.410099,0.2086 -0.6215706,0.2657 l 0,5.9757 c 0.1085911,-0.3258 0.2514807,-0.6173 0.4286693,-0.8745 0.1771778,-0.2572 0.3686499,-0.4987 0.574417,-0.7244 0.2057551,-0.2258 0.4129451,-0.4444 0.6215706,-0.6559 0.2086123,-0.2115 0.3986555,-0.433 0.5701303,-0.6644 0.1714604,-0.2315 0.3100633,-0.483 0.4158093,-0.7545 0.1057307,-0.2715 0.1585999,-0.5787 0.1586077,-0.9216 -7.8e-6,-0.1372 -0.00715,-0.2672 -0.021433,-0.3901 -0.014297,-0.1229 -0.038588,-0.2587 -0.072874,-0.4073 l 0.085734,0 c 0.1371663,0.1715 0.2529069,0.3558 0.3472222,0.553 0.094299,0.1972 0.1714595,0.3944 0.2314815,0.5916 0.060005,0.1972 0.1043011,0.3929 0.1328875,0.5873 0.028569,0.1943 0.042858,0.3743 0.042867,0.5401 z m -3.8580245,-5.7613 c -0.1371787,0 -0.2643505,0.024 -0.3815157,0.073 -0.1171738,0.049 -0.2171966,0.1158 -0.3000686,0.2015 -0.08288,0.086 -0.1486092,0.1872 -0.1971879,0.3044 -0.048586,0.1171 -0.072878,0.2415 -0.072874,0.3729 -3.7e-6,0.1315 0.024287,0.2572 0.072874,0.3772 0.048579,0.1201 0.1157368,0.2258 0.2014746,0.3173 0.08573,0.091 0.1857526,0.1629 0.3000686,0.2143 0.1143074,0.051 0.2371925,0.077 0.3686557,0.077 0.1371693,10e-5 0.2643411,-0.026 0.3815157,-0.077 0.1171645,-0.051 0.220045,-0.1229 0.308642,-0.2143 0.088586,-0.091 0.1571732,-0.1972 0.2057613,-0.3173 0.048577,-0.12 0.072868,-0.2457 0.072874,-0.3772 -5.7e-6,-0.1314 -0.024297,-0.2558 -0.072874,-0.3729 -0.048588,-0.1172 -0.1157462,-0.2186 -0.2014746,-0.3044 -0.085739,-0.086 -0.1871909,-0.1529 -0.3043553,-0.2015 -0.1171746,-0.049 -0.2443464,-0.073 -0.3815158,-0.073 z"
         id="path3000"
         style="fill:#ffffff;fill-opacity:1" />
    </g>
  </g>
</svg>
